<svg xmlns="http://www.w3.org/2000/svg" xmlns:xlink="http://www.w3.org/1999/xlink" width="180" height="180" viewBox="0 0 180 180"><defs><clipPath id="b"><rect width="180" height="180"/></clipPath></defs><g id="a" clip-path="url(#b)"><path d="M112.382,88.535s7.732.25,28.794,0S167.884,73.8,167.709,64.174s-7.276-23.624-26.533-23.639-74.909.1-74.909.1L57.145,51.725s74.327-.238,84.031.112,14.53,8.116,14.705,12.492-5,12.1-14.705,12.45-20.794,0-20.794,0Z" transform="translate(-0.382 7.465)" fill="#1565c0" stroke="#1565c0" stroke-width="1"/><path d="M77,125l-7.343,11.092-53.551-.138L23.809,125Z" transform="translate(18.618 -40.485)" fill="#1565c0" stroke="#1565c0" stroke-width="1"/><path d="M77,125l-6.95,11.092h-56L22.1,125Z" transform="translate(-1.382 -8.623)" fill="#1565c0" stroke="#1565c0" stroke-width="1"/></g></svg>